<?xml version="1.0" encoding="UTF-8"?>
<svg width="1056" height="286.86614173228344" xmlns="http://www.w3.org/2000/svg" xmlns:svg="http://www.w3.org/2000/svg">
 <title>Mt. Rainier</title>
 <g>
  <title>Layer 1</title>
  <path d="m54.67193,201.94556c9.62978,-3.36078 19.51877,-5.93006 28.99093,-9.6698c9.75168,-0.91278 18.26015,-5.7843 27.44715,-8.60126c4.69889,-1.98784 12.78833,-5.29123 14.84294,-5.18077c2.05462,-0.1442 10.29848,0.5788 15.30622,2.05969c9.4314,-0.06985 14.67953,-9.58565 25.78648,-11.20407c8.48026,-5.7522 18.69091,-2.86574 28.07941,-5.19109c10.54054,-0.81346 17.6751,-10.36758 28.62302,-9.75715c9.37907,-1.10352 19.39399,-2.95992 27.81958,-7.00421c10.39822,-2.61656 17.90262,-6.39495 27.72177,-7.59043c11.13739,0.77692 27.25766,6.49311 36.06702,-1.40056c7.74102,-4.84687 16.40036,-7.65487 24.38562,-12.03356c8.70831,-2.53449 16.56289,-7.24125 24.58261,-11.22092c4.40854,-1.23398 7.75876,-3.94893 10.75402,-7.13672c2.9953,-3.18781 5.63575,-6.84845 8.62476,-9.97385c8.60132,-3.72328 15.55786,-9.14241 21.89633,-15.99691c4.22495,-5.01804 5.92804,-12.40131 13.711,-13.72632c6.17905,-6.14171 13.02686,-11.44312 19.55872,-17.23416c2.93142,-9.02994 13.72354,-11.02371 21.23446,-15.18167c4.37107,-1.94855 8.47278,-2.50899 12.57325,-3.33057c4.10043,0.83375 8.19958,2.67969 12.05621,5.28925c1.37619,0.84295 11.6702,-0.79062 13.08594,-0.14258c0.89889,0.45136 3.58923,3.16031 6.53094,4.40814c2.68704,0.35651 6.1348,1.03459 6.51114,1.75362c0.74909,1.64793 0.71103,1.45061 1.46332,2.4802c8.47778,3.60304 17.32037,8.8888 20.97626,11.36969c4.41253,1.60376 8.77545,3.31594 13.07562,5.18103c4.30011,1.86512 8.53748,3.88315 12.69891,6.09867c7.82154,0.6281 8.5412,12.75433 19.71979,16.9588c7.41284,7.85785 17.66834,11.40645 25.14764,19.01303c9.33979,5.16492 18.84607,8.64893 29.95807,7.58087c7.22596,0.32572 15.79029,12.35794 23.40662,17.25064c7.51007,2.01111 15.7738,1.09488 22.6471,6.50565c8.06884,6.04262 15.59179,11.31074 22.77685,18.4424c6.07092,7.47171 14.77502,12.03679 24.63348,9.65019c10.3739,0.15739 19.70526,-6.02437 30.19147,-2.19351c12.78278,1.60016 24.73309,6.83268 35.99701,12.89605c8.60437,3.18743 15.20251,11.92746 25.18048,10.54486c12.12262,0.97513 24.612,1.15183 35.91107,6.27475c8.75757,3.36152 18.64777,1.68085 26.82514,6.74698c12.98834,4.92008 16.32019,6.44773 28.78888,12.91837c9.95422,3.60281 24.35858,7.44055 31.49591,13.89966c7.97442,5.86456 17.04748,9.46722 25.90985,13.16711c9.2572,8.04114 -19.45587,2.7912 -23.6911,3.00873c-17.59986,-0.39243 -28.67719,8.37573 -38.28302,10.89981c-10.68567,3.71585 -19.95057,4.61212 -29.33936,-0.27091c-10.72436,-3.29821 -22.11334,-3.74725 -33.22626,-4.51684c-6.41046,0.63006 -16.854,-5.60788 -20.98455,-0.595c2.52392,9.63485 4.24145,13.94632 -8.29786,10.25534c-9.87304,-3.28876 -19.30291,-7.56836 -28.87976,-11.58014c-12.32733,-3.2894 -24.19745,-9.55075 -37.3385,-8.26697c-11.51434,-0.71847 -22.90844,0.91528 -34.30859,1.37738c-12.44641,-0.37097 -25.24976,-1.57403 -37.33722,2.17664c-9.97076,2.77157 -19.99793,5.40024 -29.81842,8.46686c-11.06848,7.33026 -24.9848,3.28961 -37.31207,3.21545c-10.86133,-0.39752 -21.53211,-1.83502 -31.81025,-5.51877c-17.95416,-5.61914 -36.57891,-8.42569 -54.93664,-12.31265c-12.11844,-2.60681 -24.32843,-5.35446 -35.28558,-11.39203c-8.2323,-3.68738 -16.16584,-8.01416 -24.47626,-11.37894c-6.82352,-4.50424 -17.43726,-12.70596 -23.93527,-3.49942c-8.91074,4.32813 -19.10465,4.24207 -26.66043,11.45441c-5.40329,9.29636 -14.43662,14.64059 -25.5004,12.46808c-10.24298,2.62048 -20.41116,0.06384 -30.48257,-2.02973c-11.42261,-2.47036 -22.4437,-6.52929 -34.19645,-7.28869c-10.39523,-2.19428 -20.95468,-3.31287 -31.51059,-4.397c-11.02386,-1.39139 -22.87451,0.42929 -32.93994,-5.25168c-11.67795,-1.64881 10.08896,-11.70108 -2.76393,-11.63837c-13.16516,-0.54929 -26.92758,-0.20618 -39.06767,5.43225c-9.776,4.74164 -23.16535,-2.81955 -31.10491,4.99799c-3.38797,9.22748 -14.54173,5.49505 -21.9456,7.27704c-9.595,4.76522 -20.36006,4.65817 -30.69818,6.37866c-8.52884,1.71548 -17.2483,2.78937 -25.63158,-0.8458c-14.22177,-4.06161 -28.33805,-10.45712 -43.46265,-9.08383c-12.18279,-0.00641 -24.36027,1.74606 -36.53377,0.91522c8.96915,-2.48486 16.88395,-7.13818 24.17964,-12.91577c1.44554,-0.89844 2.92729,-1.81372 4.58675,-2.26086z" id="path2639" stroke-opacity="0.66071" stroke-width="1px" fill-rule="evenodd" fill="#000000"/>
  <path stroke-linejoin="bevel" d="m517.30902,61.83301c-2.85303,-1.20491 -9.32702,-3.95291 -13.11999,-5.33111c-6.49402,-4.4396 -15.97907,-9.4903 -20.62299,-11.1587c-4.60706,2.0654 -9.53204,6.0896 -14.12903,8.1673c-2.59997,1.8932 -5.401,3.5254 -8.14697,5.15719c-1.14002,2.08402 -5.13104,7.30071 0.00696,6.59911c2.92199,-0.7251 7.02002,0.9274 3.96997,4.25389c-0.73999,3.59201 -7.65393,4.18701 -3.58594,8.02042c-1.02307,4.22259 -9.73706,2.8078 -8.67304,8.41589c1.30097,4.96039 -4.33697,4.41501 -7.21899,5.27811c0.70599,5.07498 -6.32001,5.0668 -6.099,9.73999c-0.16699,2.10431 -0.00799,7.06891 1.95502,2.67151c2.92395,-3.0907 3.86798,-8.2692 8.50195,-9.41172c0.745,3.58152 -2.99194,8.1987 -6.56396,9.93671c-3.23804,3.21939 -7.53101,4.4624 -11.04297,7.2294c-2.50904,3.94699 -7.65503,3.31299 -11.33802,1.65399c-3.97003,-1.48498 -7.76501,1.00901 -11.15203,2.77001c-4.232,0.25801 -5.92096,4.33601 -9.07898,6.408c-3.68402,1.42499 -6.27002,4.922 -9.651,6.351c-1.86506,-3.076 3.039,-8.72099 -1.06904,-10.50999c-2.27697,3.51998 -6.68096,2.936 -10.39898,2.906c-3.22602,0.23899 -7.47602,-1 -9.54303,2.29898c1.77099,1.71201 2.05603,4.45601 -1.42896,3.711c-4.80896,-3.198 -8.08996,2.457 -12.333,3.76401c-3.40198,2.44501 -10.24201,0.83099 -10.50196,6.524c-2.03906,0.72901 -5.60705,-5.45799 -7.28601,-0.457c-2.81402,1.94 -10.46002,-0.263 -8.95508,5.636c-0.88098,2.795 -6.15295,0.43801 -7.63891,3.75c-3.99304,0.674 -7.82508,1.795 -10.75501,4.82401c-3.65307,2.89599 -8.65906,1.612 -12.71301,3.666c-2.98401,0.778 -7.68506,-3.47 -7.63904,1.93799c0.76306,5.253 -5.25,2.888 -7.92102,4.66301c-2.73895,2.53099 -5.95593,5.61999 -5.052,9.75099c2.979,2.09401 5.27002,5.78801 8.16504,7.416c3.875,-0.306 7.41296,-2.25099 9.73095,-5.37c3.10706,-2.457 8.39106,2.845 10.75104,-2.15201c2.37799,-2.80898 5.90497,-3.26998 7.17304,0.64301c3.50793,4.494 -5.63202,2.94701 -7.94007,4.338c-3.01098,3.427 -9.01599,0.50599 -10.34497,6.17601c-0.80298,2.39698 -5.31701,4.362 -4.82397,6.40799c4.32098,-0.81702 7.91199,-3.748 11.95495,-5.389c4.22205,-1.712 8.47602,-4.274 13.05201,-4.567c-1.79395,3.501 -1.22303,9.13202 -5.77497,10.78699c-2.487,1.32901 -9.99402,2.099 -7.88501,6.07703c2.94599,2.43399 5.42804,5.362 7.92096,8.03198c4.65204,0.57001 8.21204,-2.995 11.77503,-5.328c2.03601,-2.83399 2.14697,-7.89002 6.37902,-8.38001c3.10999,0.35602 8.54499,-3.18399 10.23902,0.14203c-1.08802,5.01398 6.08093,3.74197 6.93896,0.24799c4.56397,-0.54902 9.50501,-1.491 12.87305,-4.974c-0.48608,-3.19802 -1.72705,-8.22501 3.28595,-7.95301c2.83502,-1.943 7.06097,-2.236 10.15497,-1.249c-0.82593,4.005 -3.469,8.274 -7.61499,9.37199c-5.12299,-0.20099 -1.34094,7.23102 1.64807,3.19c3.19092,-3.767 8.61792,-2.00098 12.78796,-3.77299c3.42603,-1.579 7.17298,-1.667 10.74701,-2.521c3.26703,-1.561 0.86395,-4.653 -1.85199,-2.827c-2.82904,1.047 -6.10602,2.05899 -6.35205,-2.15699c-0.04102,-3.90702 -7.99695,-0.48001 -7.255,-2.35901c4.30804,-2.185 8.94604,-3.513 13.37207,-5.405c4.828,-0.873 8.41296,-4.62399 13.04699,-5.96401c3.20801,-1.80799 4.38294,-7.052 8.92896,-5.87098c4.315,-0.70201 7.83899,-4.57102 12.54901,-3.50202c1.724,-0.19099 6.21399,1.67201 2.138,1.73201c-3.08399,-0.673 -9.54401,2.58 -4.66602,5.33699c4.03101,0.38901 8.18006,-1.39898 11.54004,-3.51599c4.12,-1.77501 8.36798,-3.213 12.88599,-3.306c4.85699,-0.81399 4.16198,-6.1 2.13897,-9.10701c0.84198,-4.66099 6.82203,-5.59399 10.81806,-5.45199c4.45398,1.13999 7.66797,5.33599 11.14294,8.249c2.30402,3.719 7.07398,4.292 10.94,5.124c4.61902,-1.405 7.26398,2.011 8.57599,6.03c1.95801,2.531 8.83405,2.41799 6.55603,7.02999c-3.02697,-0.32598 -9.97302,0.86501 -5.12701,4.63701c2.72601,1.454 9.21503,2.414 9.04498,-2.30301c-0.28698,-2.49699 -0.81897,-4.83099 1.22205,-6.61499c-0.315,-2.751 -9.89905,-4.83799 -4.15503,-7.38101c3.901,-0.87999 8.89203,-7.14999 4.07501,-9.56698c-2.46503,0.70298 -6.23804,-0.028 -3.453,-3.03601c-0.89002,-4.202 -5.91699,1.953 -7.315,-2.42099c-1.23401,-2.91301 2.00097,-8.049 -3.45398,-6.78801c-2.04505,0.38 -4.34107,-0.605 -1.12403,-1.70499c3.94898,-0.47101 5.58497,-4.46402 1.594,-6.53401c-3.39002,-0.107 -3.90601,-2.808 -1.177,-4.629c3.39404,-1.812 8.18298,-5.27901 3.29101,-8.687c-2.52301,-1.971 -0.854,-5.8489 1.96302,-3.091c3.15698,2.774 7.19696,3.69699 9.92199,6.61499c3.00196,0.73102 4.16297,-4.54498 6.55896,-0.155c1.11103,3.44 6.086,-1.58899 4.57703,3.28601c-1.09302,4.235 1.58099,8.041 3.01202,11.814c-2.40802,-0.81299 -5.37805,-5.439 -8.13,-5.629c-1.19403,3.215 -1.45703,7.828 3.16797,7.686c4.05603,0.275 7.36999,1.65601 8.56103,5.907c1.53699,4.07601 -3.42102,7.82199 0.625,11.39501c4.61298,1.87199 4.70398,7.79799 9.138,9.78099c2.70197,1.15899 6.06598,-2.03099 6.11298,2.585c3.466,2.86901 5.46698,7.32599 9.02002,9.894c2.93298,1.85201 6.12597,2.956 8.914,0.26599c3.66498,0.28801 4.58697,5.49102 8.54895,6.20001c1.49005,3.13199 3.38904,6.601 7.45001,6.08899c4.18604,-0.77299 6.13702,3.756 9.539,4.20803c2.42902,-1.43103 1.86402,-4.43702 -0.44202,-5.42102c1.83002,-4.85 5.54505,6.15301 6.95203,-0.031c4.66998,0.80199 -1.63,6.959 4.19598,6.48699c3.04999,1.539 7.66803,-0.039 7.75403,4.73401c1.79999,2.263 0.33496,7.289 4.77399,5.815c2.81903,0.392 3.474,5.62298 7.41803,4.155c3.383,-1.90402 7.13995,-2.40601 10.961,-2.23398c3.00696,-2.03003 6.71399,4.05197 8.53796,1.72198c-2.50097,-3.54998 -6.23101,-6.40802 -9.656,-9.12902c-4.40198,-1.92798 -3.344,-9.25199 -9.53699,-8.693c-2.664,-0.23397 -6.16602,-3.30699 -5.64899,-5.46598c3.61701,2.469 8.02301,2.334 11.79901,4.28801c3.04798,3.03497 5.98597,6.526 8.94196,9.68899c2.54602,2.86899 9.23004,-0.04202 8.93603,5.58902c-1.72399,4.12698 1.64002,10.39798 6.53998,8.81299c4.37903,-1.323 8.98401,2.37201 13.146,-0.30902c2.16601,-2.17298 6.21802,-1.88199 6.89899,1.51501c-4.06397,-0.22799 -7.771,1.284 -11.64399,2.026c-3.54901,0.21698 -7.04797,-3.24402 -10.50201,-0.94101c-1.06598,4.94199 4.66803,7.42099 8.862,6.551c3.32104,-0.16797 6.643,0.35 9.60803,1.87701c3.80298,0.056 6.84198,3.207 10.758,2.72498c5.70501,0.19702 10.31299,4.10901 15.89898,4.79004c2.529,0.20697 8.41999,2.36999 8.823,-0.86502c-3.78497,-2.805 -8.75299,-3.77298 -12.95898,-5.97599c-5.31299,-1.42501 1.104,-8.13202 -3.45899,-10.51001c-2.62701,-2.11902 -6.39202,6.97602 -5.72503,1.78998c0.77899,-1.966 2.82202,-4.68896 -0.93,-4.53796c-3.07299,0.54999 -5.122,-0.67902 -6.58197,-3.37903c-4.04101,-0.34799 -8.19403,-0.17499 -12.26599,-0.034c-2.67205,-0.71499 -2.50402,1.91001 -3.23205,2.97c-1.78095,-2.16699 -5.37598,-3.00799 -6.75299,-4.876c2.45703,-1.57199 5.85504,-4.44397 1.64404,-6.45499c-1.69403,-2.16901 4.76599,-2.08701 2.20697,-4.98898c-1.92798,-3.52204 -2.87,-9.66703 -7.83301,-9.80002c-5.03998,-1.04001 3.67304,-2.12801 5.41504,-1.12401c4.526,-0.59999 8.45099,4.011 12.87,1.93301c2.94598,-2.807 3.68396,-8.66801 8.55999,-8.701c3.89197,-0.222 7.49201,-1.33301 10.25598,-4.062c0.55103,-1.574 -1.91998,-4.05 1.36402,-2.93501c4.61798,1.56101 0.841,-2.91299 -1.28803,-3.68899c-2.02697,-3.73 -5.888,-5.762 -8.48797,-9.00299c-3.737,-0.98401 -5.55402,-3.91001 -6.98303,-7.36501c-3.86597,-3.07899 -8.44001,0.843 -12.38697,1.854c-3.24402,1.45701 -7.04303,1.474 -8.36004,5.33699c-2.66596,1.19901 -8.83899,1.19501 -9.612,-1.13899c2.20001,-0.173 3.953,-2.123 0.669,-2.561c-3.14398,1.019 -9.216,-1.59 -9.974,2.878c0.81202,4.422 -5.00396,4.15999 -7.91797,5.10599c-3.87902,-0.09599 -3.84301,8.272 -8.52703,4.92401c-3.31196,-2.36101 -7.00098,-6.569 -11.03296,-2.751c-3.63202,2.899 -8.086,3.328 -12.54999,3.484c-4.01502,1.241 -5.47901,-3.509 -8.13202,-5.04c-5.12299,-0.031 -5.56702,5.85299 -1.06201,7.36c2.38202,-2.316 4.77203,-1.945 5.41498,1.563c-0.146,3.50501 8.096,5.15199 3.93603,7.93801c-3.48804,-2.44201 -7.20502,-5.431 -11.30701,-7.42101c-4.078,-1.64999 -6.833,-5.19299 -10.17602,-7.88499c-2.29999,-3.88901 -5.76599,-6.53101 -9.64697,-8.541c-1.83899,-3.49701 -4.01502,-6.90601 -6.66999,-9.84002c-3.04504,-2.77099 -0.53302,-7.63798 -2.01904,-11.16099c-0.27997,-2.56299 -6.59796,-4.58499 -1.87695,-6.33499c2.65698,-1.16501 8.099,-5.77301 8.29498,0.02099c0.242,3.998 -5.263,6.131 -3.25702,10.48801c0.47901,1.67499 1.888,6.88599 1.52399,2.39099c-0.80499,-3.17401 1.96704,-7.31 4.75,-7.881c0.10504,4.182 1.61004,7.971 3.67004,11.545c1.08496,4.051 2.17798,8.282 5.07495,11.429c1.85804,3.84101 6.84601,0.12799 7.19202,-2.03399c-2.289,-3.155 -6.56299,-4.64501 -7.95099,-8.42501c1.14099,-4.772 -3.36603,-6.27301 -6.12298,-8.80499c-0.90204,-4.14502 2.21801,-7.61301 4.99798,-10.21201c1.61499,-4.119 -0.85901,-8.33599 -2.92798,-11.79699c-1.17004,-4.31691 -5.185,-6.60741 -6.76904,-10.60932c-1.177,-2.70729 -5.88696,-5.12228 -1.56897,-7.57528c-0.26203,-3.81992 -4.53601,-6.66642 -3.69,-11.0011c-3.61402,-1.97791 -7.25299,-3.76691 -8.35498,-8.14211c-3.45301,-1.5244 -7.74701,-1.3621 -9.79303,-5.1962c-1.28699,-1.43769 -1.06598,-3.4676 -1.90998,-5.15699l0,0l0.00001,0zm-171.07306,45.07599c-1.51196,1.841 -7.15393,6.158 -10.87896,7.11401c-8.94696,4.65 -19.98798,10.26898 -24.53101,11.27499c2.37402,-0.279 5.16705,-0.07901 6.53204,2.178c1.375,1.912 2.12396,4.464 4.48694,5.44801c2.07404,1.03899 4.60901,1.95899 6.81506,0.74599c1.97998,-1.006 3.79596,-2.33101 5.57697,-3.642c1.66699,-1.623 2.99499,-3.56599 3.97101,-5.666c1.38696,-2.45401 4.41998,-3.425 7.09698,-2.961c2.99201,0.37601 6.60297,-0.08099 8.35504,-2.853c1.23499,-1.522 4.474,-1.373 4.13898,-3.966c-0.13605,-2.73401 3.02997,-3.53 4.98999,-4.50601c1.96198,-1.65599 3.92096,0.02801 5.633,1.05501c1.71204,1.027 3.19,-2.18999 4.12597,-3.71999c1.67804,-1.49261 4.12305,-1.15401 6.20203,-1.43701c3.34399,-0.1037 6.92798,0.666 10.00098,-1.06891c3.26702,-1.41579 4.92504,-4.724 6.51501,-7.69209c0.974,-2.06819 2.39002,-4.13689 2.04102,-6.5401c-0.37201,-2.7677 1.41998,-5.1006 2.52002,-7.48171c2.65197,-3.6929 3.62597,-8.24939 5.89996,-12.15159c1.013,-2.1651 1.91205,-4.381 2.80402,-6.59841c-2.25098,0.71041 -3.89698,2.56491 -6.08802,3.42771c-3.01098,1.39041 -5.91998,2.98449 -8.612,4.9261c-2.77301,1.7057 -5.138,3.98649 -6.97101,6.67311c-2.13501,2.99449 -4.46497,6.42129 -6.79199,8.68739c-2.32702,2.2661 -5.26001,3.75161 -7.71301,5.84389c-2.20496,2.05791 -4.34497,4.42741 -7.33899,5.29991c-5.02899,2.3421 -9.565,6.3208 -15.33704,6.6216c-1.20593,0.2881 -2.20294,0.87311 -3.44299,0.9881zm115.52204,44.222c0.41204,5.466 -11.62,6.948 -4.98297,12.587c3.49401,2.59301 14.44598,-7.222 11.427,1.043c-2.67005,6.952 -11.495,5.159 -16.82703,8.45999c-6.30896,3.43801 -12.45398,-0.67498 -18.552,-2.24299c-3.88904,0.17801 -15.04901,-6.44499 -6.71997,-7.96199c7.66998,0.21499 14.76001,-2.89301 20.22095,-7.68502c4.37805,-0.58699 2.91406,-7.47099 8.87402,-5.96598c2.37097,0.09298 5.20801,-0.83901 6.56,1.76599zm20.52899,21.24901c-5.47498,1.52499 -11.20203,-5.66701 -14.25696,1.13198c-6.573,2.37301 -14.073,9.694 -20.85303,4.12801c-3.336,3.33901 -15.79602,2.72 -9.919,9.93898c5.61499,3.65503 14.59601,-0.52698 18.70501,6.203c4.34095,5.73001 12.69495,5.80802 19.279,6.09802c5.82696,0.538 11.341,3.57502 16.77398,1.26001c2.61304,4.70301 4.68103,-0.14202 1.22901,-2.08599c0.75,-4.18403 7.51001,4.68698 11.14203,1.83398c4.73199,-1.03699 17.50299,3.02899 13.81195,-5.55402c-4.69995,-4.99597 -5.98297,-15.25598 -14.92701,-12.26098c-6.05297,0.363 -12.57592,-1.319 -17.38293,-4.93c-1.44202,-1.82701 -1.29804,-4.56201 -3.60205,-5.763l0,0.00001zm10.44501,41.77801c-6.37,-2.84802 -13.95099,-3.18802 -19.44904,-7.56302c-6.38995,-2.65799 -13.53296,-0.96701 -20.25897,-1.43002c-4.35999,-1.46298 -9.72498,-6.81696 -14.85797,-3.65299c5.43798,2.50602 10.60595,5.025 13.38299,10.37601c6.66596,1.89502 13.12897,3.78699 18.51801,8.30701c5.71197,1.66198 12.68396,2.76999 18.16296,0.10998c2.99603,-0.73498 5.39203,-2.784 4.50201,-6.14697l0.00001,0zm31.333,-53.30302c-2.12201,6.515 4.03101,12.589 10.25,14.66301c4.46802,3.66899 -4.88,-2.66701 -6.68499,-2.82601c-2.93403,-2.91 -13.737,-10.532 -11.39801,-1.662c3.98303,4 -5.93897,-2.64301 -8.01398,0.27c-6.58002,2.31099 -0.03101,10.723 5.45001,9.78099c7.474,1.556 13.57098,7.305 21.362,7.60303c1.16394,2.10498 8.84796,6.37998 4.52197,1.344c-3.31598,-4.47504 2.029,-11.35502 -2.90899,-16.21701c-3.66901,-4.933 -11.78302,-5.57201 -12.57801,-12.95601zm29.17298,29.533c-4.49298,-1.81201 -16.055,-2.35602 -8.89301,4.857c3.00806,3.88202 10.95606,8.50201 11.29303,11.76901c-5.05902,-1.75501 -9.00897,-7.233 -13.49701,-8.53201c1.13904,2.60998 3.85102,5.65899 -0.78796,2.71099c-6.04602,-1.19598 0.80597,5.41501 2.84595,6.78003c6.09204,4.45798 12.60705,8.31897 19.46704,11.31897c2.69598,2.32703 10.31695,4.917 3.44098,0.98102c-3.24201,-2.94202 -11.766,-5.76703 -10.93799,-9.88602c6.98498,2.737 12.00201,9.49302 19.55499,11.28c2.64502,2.33503 11.83398,6.31601 8.32202,-0.86297c2.31799,-6.32901 -5.20404,-12.53601 0.48999,-17.19c-0.79199,-9.81302 -10.75,-5.34003 -15.45099,-1.34101c-3.82202,0.18799 -6.86401,0.95999 -3.242,4.68201c2.68896,7.12897 15.81598,1.80698 14.69195,11.12897c-2.26696,2.61102 -5.716,-4.685 -9.46899,-3.95697c-5.79199,-3.732 -10.60596,-9.19101 -13.50598,-15.45502c-1.35602,-2.87 -3.73602,-5.03699 -4.32202,-8.284zm48.26104,48.26099c-6.73803,0.42303 -4.30999,10.143 1.44001,5.76202c4.18798,-2.01401 2.46795,-5.17999 -1.44001,-5.76202zm72.39099,-45.01999c-5.81799,-0.15201 -6.54998,9.25101 -12.359,3.487c-1.84198,-3.63901 -6.09803,-5.759 -9.138,-8.185c5.11999,-1.62198 9.02502,3.80801 12.13299,5.77902c1.66199,-4.17102 7.69,-7.84701 9.36402,-1.08102l-0.00001,0zm-92.453,-86.459c6.43097,3.05101 15.61499,4.83 21.948,4.448c-2.32599,3.82 -6.698,6.953 -8.36902,11.421c-7.00299,1.789 -14.44598,3.103 -21.27399,4.898c-2.78601,-1.554 -3.00799,-5.862 -7.01501,-6.36901c-1.76898,-7.02499 7.36798,-5.26799 7.86499,-11.30299c1.71899,-1.68199 5.44501,-0.925 6.84503,-3.095zm141.64496,52.81399c1.49005,0.06202 2.95001,0.24601 5.52002,1.20201c3.20599,0.256 8.66803,1.53901 11.41302,2.334c-4.44299,0.698 -10.18603,10.814 -13.21704,11.126c-1.00396,-4.398 -2.875,-10.26599 -3.716,-14.66201zm-7.77399,39.04799c-3.38098,6.33103 -12.474,6.38501 -16.59601,12.159c-6.59899,0.15503 -12.09198,11.75702 -18.21197,3.82001c-3.08197,-4.094 -6.12201,-8.14698 -2.22302,-12.86899c2.86902,-6.16202 12.12805,0.961 17.05902,1.17502c5.97003,-0.75702 14.60199,2.28796 15.77099,-5.44403c1.46503,-0.529 2.97303,0.52099 4.20099,1.15899zm18.008,-12.966c-0.94898,1.005 -10.771,6.48102 -6.17798,-0.10898c1.05597,-3.25999 8.04901,-5.75999 6.17798,0.10898zm-9.72498,-3.24098c-3.65802,0.8 -7.12402,1.919 -4.87298,6.59102c2.46997,-1.039 7.52496,-2.99103 4.87298,-6.59102zm53.30298,15.847c-4.90796,0.729 -8.72198,-9.02201 -1.86499,-10.137c8.14606,-0.57498 1.66602,11.366 10.05597,10.59299c8.43799,3.25601 -3.43097,12.79602 -8.55096,8.547c-4.79401,-0.72797 -7.34601,-9.82898 -0.35999,-6.482c2.409,1.93402 7.75397,3.34003 3.52899,-1.09399c-0.32397,-1.32501 -1.58502,-1.83701 -2.80902,-1.427zm-42.85797,15.126c-3.82501,-1.82901 -15.56,-1.582 -9.60498,4.44498c4.60394,-0.60699 11.409,2.75104 14.76996,-0.12799c-0.72601,-2.19699 -3.81799,-2.51697 -5.16498,-4.31699zm-40.698,10.44498c4.79596,-1.48297 12.99097,-0.70099 18.12702,2.78803c3.375,1.12399 12.70099,5.64199 3.84295,5.49499c-7.44598,-0.19 -15.05798,-3.10199 -21.25897,-7.03601l-0.711,-1.24701l0,0zm36.73597,0c1.87304,-3.5 2.18902,1.70603 -2.16095,0c-4.35004,-1.70697 -12.00403,6.69904 -3.888,5.94202c5.65295,-0.966 4.177,-2.44299 6.04895,-5.94202zm3.60205,1.80002c-3.11402,6.784 8.84698,8.40799 13.76599,6.45599c7.52398,0.96201 15.55999,0.33499 22.53796,3.98401c5.65302,2.56998 16.02502,3.06998 18.48511,-3.95199c-1.06714,-8.16199 -12.34906,-4.84699 -18.04108,-7.86902c-7.12201,-3.555 -13.56403,5.776 -20.08502,-0.21497c-5.73902,-3.15402 -10.20099,5.94397 -16.66297,1.59598l0.00001,0zm81.03491,-9.00302c-4.71594,3.08301 -17.23487,-0.62 -10.08594,-6.80097c4.35693,-1.863 9.68701,2.396 10.08594,6.80097zm-18.72803,12.96503c-1.80395,7.19299 8.13403,7.19299 12.48108,5.33398c-1.28101,-4.60599 -8.3219,-2.23599 -10.20105,-6.51898l-1.03394,0.432l-1.24609,0.753l0,0zm57.26416,23.40997c-2.2981,-4.55197 -13.14709,-5.42999 -7.49206,-12.08197c6.31298,-3.38202 12.01306,4.552 17.604,-0.16501c4.64502,-1.23099 15.54407,0.918 13.8009,6.92099c-5.63086,4.23501 -12.96789,5.89902 -20.04883,5.84701c-1.30004,-0.05999 -2.58911,-0.26901 -3.86401,-0.52102zm-2.8811,-51.862c0.94506,7.87103 -9.40992,7.88202 -14.77906,8.987c-9.35498,0.51904 -13.06689,-9.36298 -18.59985,-14.88696c-4.48108,-2.646 -14.09106,0.03796 -15.27808,-5.92701c4.71802,-0.67401 8.20801,6.31098 13.55909,2.65699c7.67492,1.13501 15.27795,2.09301 22.8529,3.04699c3.60901,3.15302 10.42505,0.84302 12.245,6.12299zm-51.86194,-3.96198c-2.95007,1.405 -5.08411,-2.729 -6.12305,-5.04199c-6.48401,0.14801 2.99597,4.827 3.49207,7.79297c3.18396,2.92502 7.75097,-1.59097 2.63098,-2.75098zm-191.24304,-66.62899c1.02398,3.40998 3.92303,8.50799 8.37902,10.40998c-1.841,2.25901 -7.01599,1.47 -4.41699,6.51801c-4.445,6.869 -11.48602,-0.34599 -16.453,-2.68201c-2.276,0.858 4.90698,6.82401 6.46796,9.18501c3.12201,6.751 -6.32801,-0.03601 -8.02295,-2.181c-3.24805,-3.32099 -9.14301,-3.516 -6.802,-9.531c-0.82801,-5.306 8.03595,-2.06101 7.27496,-8.343c1.55102,-5.90801 9.13702,-5.273 13.573,-3.376l0,0.00001zm-402.29297,43.57899c-1.20603,4.579 -5.12604,2.41901 -7.64301,0.422c-5.60199,2.46499 -11.47802,4.21499 -16.488,-0.782c-7.34403,-4.011 -15.40702,0.97501 -22.83402,2.42c-3.112,2.11 -15.229,1.253 -7.03299,-2.47299c6.79001,-2.35801 14.41501,-1.93801 20.74899,-5.75501c8.29602,1.022 15.79102,-5.115 24.03101,-1.797c2.89502,3.21399 5.65698,5.01999 9.21802,7.965zm-60.86701,17.648c-1.065,0.50601 -15.76599,0.25302 -7.92303,-3.24198c2.72201,-0.02203 8.33401,-1.25104 7.92303,3.24198zm257.87201,-4.322c-1.26098,1.89801 -9.85101,8.77802 -7.92401,0.35999c1.43097,-2.078 5.80298,-1.08301 7.92401,-0.35999zm-38.53698,18.008c-2.87403,0.607 -4.68201,10.65198 -8.64405,4.32202c-5.29498,-5.47003 5.81702,-7.66003 8.64405,-4.32202zm68.06897,-170.3538c-0.383,0.7662 -0.35999,3.852 -0.35999,5.7625c0,1.6365 -0.35998,3.0611 -0.35998,5.04211c0,0.95209 -2.09205,2.02279 -2.521,2.88129c-0.72302,1.4468 -1.073,2.4916 -1.44104,3.9617c-0.33301,1.3344 -0.35999,3.2166 -0.35999,5.04211c0,2.34079 -0.44397,3.04899 -1.08001,4.3219c-0.724,1.4476 -1.41498,2.0578 -1.80097,3.60159c-0.37603,1.50461 -1.44299,2.16879 -1.80102,3.6015c-0.33301,1.3344 -0.35999,3.21671 -0.35999,5.04221c0,1.80079 0,3.60159 0,5.40239c0,2.377 -0.68902,2.4584 -1.44104,3.9617c-0.76794,1.53669 -1.07995,2.1199 -1.07995,4.32179c0,1.72041 0.06598,3.86682 0.35998,5.0422c0.42798,1.7121 0.375,3.66062 0.71997,5.04221c0.54804,2.1891 -0.40496,3.2863 -1.43994,4.32181c-0.89703,0.8963 -0.81805,3.27078 -1.08105,4.32179c-0.48902,1.955 -0.34699,2.89101 1.08105,3.96199c1.594,1.19602 2.27198,1.02501 3.60095,0.36002c0.34705,-0.17301 0,-4.82001 0,-5.40201c0,-1.6302 -0.71997,-2.7721 -0.71997,-4.6824c0,-1.39789 -0.35998,-3.3998 -0.35998,-5.04221c0,-2.31598 0.69195,-2.76819 1.07995,-4.32179c0.41102,-1.64391 0.98999,-2.1584 1.44104,-3.9617c0.31897,-1.2753 1.13001,-2.72121 1.44098,-3.9617c0.39203,-1.5706 0,-3.7739 0,-5.40239c0,-1.10361 1.14496,-2.7822 1.44001,-3.9617c0.38,-1.5188 -0.11805,-4.07561 -0.35999,-5.04221c-0.39502,-1.58191 -0.35998,-3.102 -0.35998,-5.0422c0,-2.39029 1.28094,-4.1422 2.16095,-6.12259c0.58197,-1.3096 1.34899,-2.42981 2.16101,-3.24141c0.77704,-0.77719 1.08001,-2.8426 1.08001,-4.3219c0,-2.3803 0.35999,-2.8806 1.081,-4.32179c0.72101,-1.44119 1.45196,-2.56851 1.79999,-3.9617c0.36303,-1.45171 0.36401,-3.22621 0,-4.68201c-0.25403,-1.019 -1.487,-1.9011 -2.521,-2.5211zm7.92395,21.60929c-0.396,-1.58409 3.56506,1.29711 3.96106,2.88121c0.406,1.6223 0.32495,3.3833 0,4.682c-0.33002,1.3228 -1.65802,2.2375 -2.16004,3.2415c-1.46997,2.9395 -2.75299,4.7857 -3.60199,6.4828c-0.52698,1.05319 -1.82599,2.18649 -2.52099,2.88119c-0.55903,0.55912 -1.25898,3.23362 -1.44098,3.9617c-0.54505,2.18041 -2.24103,1.27941 -2.88098,0c-0.47803,-0.95599 1.39495,-3.19619 1.80096,-3.6015c0.625,-0.62529 1.44,-2.87979 1.80096,-3.60159c0.69702,-1.3952 1.14704,-2.2955 1.80005,-3.6015c0.63404,-1.26779 1.44995,-2.1954 1.80103,-3.60159c0.37597,-1.50241 1.25793,-2.51671 1.80096,-3.60161c0.78699,-1.57381 -0.36004,-4.63289 -0.36004,-6.12261l0,0zm194.12304,109.12751c-5.92999,-3.67 -14.70001,5.313 -3.95099,5.22399c4.46601,2.42801 8.771,-1.60398 3.95099,-5.22399zm-138.65899,-109.12751c-2.375,7.21012 -25.88605,10.78051 -13.14997,18.35892c5.87897,1.09589 5.10596,-7.4429 8.88098,-1.25861c5.784,1.2817 12.875,-10.6958 12.995,-0.79571c7.31097,5.58641 17.156,-6.56538 4.87396,-6.88379c-5.83899,0.66501 -15.716,-1.10431 -5.53699,-5.4292c0.258,-3.7321 -5.961,-2.185 -8.06298,-3.99161l0,0zm-18.36799,33.49442c-11.54199,-0.79462 -0.66406,13.98358 2.18299,2.05038c5.38598,10.64501 10.53503,-9.12368 0.95495,-3.33529c0.02503,2.6721 -1.86193,2.50021 -3.13794,1.28491zm17.28699,-5.04212c-2.966,-11.38888 22.37097,-5.06268 7.62396,0.68171c-6.17895,1.9723 -9.992,10.9676 -0.51898,5.4205c6.29804,-1.7272 16.23602,-0.0387 9.70099,-5.683c16.88202,-2.0569 1.08301,9.17619 -4.56696,11.3681c-6.81604,1.63021 -8.25,2.19661 -0.966,5.433c-1.54101,3.64389 -9.461,3.93491 -6.79504,-1.51629c-4.72296,-2.88091 -16.72498,10.05119 -12.04096,-0.93772c5.63098,-2.5083 6.315,-9.46779 7.56299,-14.76629l0,-0.00001zm20.16901,35.2952c0.51098,3.17502 3.71295,7.259 5.40198,3.46001c0.76599,5.24699 6.64898,3.04701 1.86798,7.541c0.92004,1.934 -1.86798,3.80301 0.19903,8.044c-5.60803,6.439 4.69098,5.76999 3.58997,0.032c3.95001,7.271 -0.41199,-5.34199 6.58905,0.732c2.37298,-6.14701 -8.74701,-5.575 -5.763,-12.60601c-5.49506,-1.04098 -5.89905,-16.15399 -11.88501,-7.203zm-81.75501,7.92301c-11.99298,1.52499 3.05597,10.39801 0,0zm-116.33099,40.33801c6.46197,-1.76801 3.89001,9.75099 11.36694,2.87599c7.41602,-2.134 18.01502,-3.33501 18.16602,-11.88c7.68701,0.164 25.16504,-10.294 21.98999,-13.541c-10.07593,4.15901 -19.54199,10.71501 -30.943,9.554c-10.88195,9.828 -21.781,-5.36299 -31.73901,4.08799c3.349,2.07601 21.03705,-2.40399 10.79407,5.77101l0.04101,1.066l0.32398,2.06601l0,0z" id="path2678" stroke-opacity="0.66071" stroke-width="36" fill-rule="evenodd" fill="#1d563b"/>
 </g>
</svg>