<svg width="0" height="0" style="position:absolute"><symbol shape-rendering="geometricPrecision" text-rendering="geometricPrecision" image-rendering="optimizeQuality" fill-rule="evenodd" clip-rule="evenodd" viewBox="0 0 640 640" id="icon-github" xmlns="http://www.w3.org/2000/svg"><path d="M319.988 7.973C143.293 7.973 0 151.242 0 327.96c0 141.392 91.678 261.298 218.826 303.63 16.004 2.964 21.886-6.957 21.886-15.414 0-7.63-.319-32.835-.449-59.552-89.032 19.359-107.8-37.772-107.8-37.772-14.552-36.993-35.529-46.831-35.529-46.831-29.032-19.879 2.209-19.442 2.209-19.442 32.126 2.245 49.04 32.954 49.04 32.954 28.56 48.922 74.883 34.76 93.131 26.598 2.882-20.681 11.15-34.807 20.315-42.803-71.08-8.067-145.797-35.516-145.797-158.14 0-34.926 12.52-63.485 32.965-85.88-3.33-8.078-14.291-40.606 3.083-84.674 0 0 26.87-8.61 88.029 32.8 25.512-7.075 52.878-10.642 80.056-10.76 27.2.118 54.614 3.673 80.162 10.76 61.076-41.386 87.922-32.8 87.922-32.8 17.398 44.08 6.485 76.631 3.154 84.675 20.516 22.394 32.93 50.953 32.93 85.879 0 122.907-74.883 149.93-146.117 157.856 11.481 9.921 21.733 29.398 21.733 59.233 0 42.792-.366 77.28-.366 87.804 0 8.516 5.764 18.473 21.992 15.354 127.076-42.354 218.637-162.274 218.637-303.582 0-176.695-143.269-319.988-320-319.988l-.023.107z"/></symbol><symbol shape-rendering="geometricPrecision" text-rendering="geometricPrecision" image-rendering="optimizeQuality" fill-rule="evenodd" clip-rule="evenodd" viewBox="0 0 640 640" id="icon-instagram" xmlns="http://www.w3.org/2000/svg"><path d="M184.715 2.752h270.582C556.908 2.752 640 84.816 640 185.069v269.85c0 100.277-83.092 182.317-184.703 182.317H184.715C83.104 637.236 0 555.196 0 454.919v-269.85C0 84.816 83.103 2.752 184.715 2.752zm133.561 145.939c98.741 0 178.868 80.127 178.868 178.868 0 98.753-80.127 178.868-178.868 178.868-98.765 0-178.88-80.115-178.88-178.868 0-98.741 80.115-178.868 178.88-178.868zm0 60.414c65.387 0 118.454 53.056 118.454 118.454s-53.068 118.466-118.454 118.466c-65.41 0-118.466-53.067-118.466-118.466 0-65.398 53.056-118.454 118.466-118.454zM491.321 123.9c16.04 0 29.044 13.004 29.044 29.032 0 16.04-13.004 29.044-29.044 29.044-16.028 0-29.032-13.004-29.032-29.044 0-16.028 13.004-29.032 29.032-29.032zM206.825 54.58H433.21c85.005 0 154.526 69.178 154.526 153.712V435.81c0 84.532-69.52 153.699-154.526 153.699H206.825c-85.005 0-154.537-69.167-154.537-153.7V208.29c0-84.532 69.532-153.71 154.537-153.71z"/></symbol><symbol shape-rendering="geometricPrecision" text-rendering="geometricPrecision" image-rendering="optimizeQuality" fill-rule="evenodd" clip-rule="evenodd" viewBox="0 0 640 640" id="icon-last-fm" xmlns="http://www.w3.org/2000/svg"><path d="M282.216 458.935l-23.528-63.757s-38.114 42.532-95.233 42.532c-50.658 0-86.529-43.996-86.529-114.368 0-90.119 45.473-122.364 90.12-122.364 64.477 0 84.993 41.765 102.638 95.257l23.528 73.241c23.516 71.115 67.525 128.257 194.246 128.257 90.875 0 152.53-27.886 152.53-101.139 0-59.362-33.757-90.119-96.77-104.87l-46.866-10.24c-32.257-7.36-41.765-20.517-41.765-42.533 0-24.886 19.76-39.638 52.017-39.638 35.232 0 54.237 13.24 57.107 44.764l73.252-8.752c-5.881-66.012-51.355-93.131-126.108-93.131-66.012 0-130.502 24.886-130.502 104.883 0 49.879 24.237 81.355 85.005 96.001l49.88 11.752c37.346 8.764 49.866 24.237 49.866 45.485 0 27.119-26.374 38.115-76.241 38.115-74.009 0-104.883-38.883-122.376-92.364l-24.237-73.24C311.612 177.45 262.49 142.3 165.012 142.3 57.235 142.3-.002 210.427-.002 326.306c0 111.368 57.12 171.498 159.888 171.498 82.75 0 122.364-38.882 122.364-38.882l-.035.012z"/></symbol><symbol shape-rendering="geometricPrecision" text-rendering="geometricPrecision" image-rendering="optimizeQuality" fill-rule="evenodd" clip-rule="evenodd" viewBox="0 0 640 640" id="icon-linkedin-square" xmlns="http://www.w3.org/2000/svg"><path d="M579.999 0H60C27 0 0 27 0 60v520c0 33 27 60 60 60h519.999c33 0 60-27 60-60V60c0-33-27-60-60-60zM239.991 519.999h-79.985V239.992h79.985v280.007zm-40.004-320.012c-22.11 0-39.993-17.882-39.993-39.993 0-22.122 17.882-40.004 39.993-40.004 22.122 0 40.004 17.882 40.004 40.004 0 22.11-17.882 39.993-40.004 39.993zm320.012 320.012h-79.986V360.005c0-22.122-17.893-40.004-40.004-40.004-22.122 0-40.004 17.882-40.004 40.004v159.994h-80.01V239.992h80.01v49.642c16.476-22.654 41.752-49.642 69.993-49.642 49.76 0 90 44.764 90 100.005v180.002z"/></symbol></svg>